
        <svg xmlns="http://www.w3.org/2000/svg" xmlns:xlink="http://www.w3.org/1999/xlink" version="1.1" width="3148.907828458379" height="3156.0975609756097" viewBox="0 0 3148.907828458379 3156.0975609756097">
			
			<g transform="scale(7.804878048780488) translate(10, 10)">
				<defs id="SvgjsDefs1001"/><g id="SvgjsG1007" featureKey="rootContainer" transform="matrix(3.5623264294968955,0,0,3.5623264294968955,0,0)" fill="#000"><path xmlns="http://www.w3.org/2000/svg" d="M4.6 5.1h98.3v24.1c.1 2.9.1 6 .2 8.1s.1 1 .1.8a61.5 61.5 0 0 0 .3-6.7v-4.2c.1-6.7 0-13.5 0-20.2V4.3H4.6V.8h102.3v24.1c.1 2.9.1 6 .2 8.1s.1 1 .1.8a61.5 61.5 0 0 0 .3-6.7v-4.2c.1-6.7 0-13.5 0-20.2V0H4v4.5H0v47.1c.1 2.7.1 5.8 0 8.7v47.6h43.5l16.7-.2h10.9a64.7 64.7 0 0 0 8.1-.3H.7V36.7C.6 31.5.6 26.3.6 21V5.1H4v42.1c-.1 2.7-.1 5.8-.1 8.8v47.6h43.6l16.7-.2h10.9a64.7 64.7 0 0 0 8.1-.3H4.7V16.7c0-5.3-.1-7.7-.1-11.6zm103 53.2v-4.7l-.2-7.8c-.1-3.2-.2-3.8-.3-3.8 0 1.9-.1 3.9-.1 5.9v17.3c0 3.1 0 6.3-.1 9.2v15.7c0 3.3 0 6.3.1 9.3v3.9l-1.9-.2h-1.7q.1-2.4.1-5.2V73.6c0-3.5.1-6.9.1-10.8v-4.7l-.2-7.8c-.1-3.2-.2-3.8-.3-3.8 0 1.9-.1 3.9-.1 5.9v17.3c0 3.1 0 6.3-.1 9.2v15.7c0 3.3 0 5.8.1 8.5H92.4c-.4.1-1.3.1-.9.1l3.5.2h8v4.2l-1.9-.2H88.4c-.4.1-1.3.1-.9.1l3.5.2h12.1c.1.3.1.1.2-1.2s.1-2 .1-3h3.7c.1.3.1.1.2-1.2s.1-5.3.2-8.7V69.3c.1-3.8.2-7.2.1-11z"/></g><g id="SvgjsG1008" featureKey="symbolFeature-0" transform="matrix(1.066889388282342,0,0,1.066889388282342,138.65553363827792,63.66555305858829)" fill="#000"><path xmlns="http://www.w3.org/2000/svg" d="M50.537,5h-8.186c-0.798,0-1.456,0.743-1.456,1.651c0,0,0.662,4.939,0.662,12.361  c0,7.423-0.662,12.36-0.662,12.36c0,0.907,0.658,1.649,1.456,1.649h8.186c0.798,0,1.454-0.742,1.454-1.649  c0,0-0.532-5.834-0.532-12.36c0-6.529,0.532-12.361,0.532-12.361C51.991,5.743,51.335,5,50.537,5z M50.537,35.989h-8.186  c-0.798,0-1.456,0.744-1.456,1.649c0,0,0.662,4.939,0.662,12.362c0,7.422-0.662,12.359-0.662,12.359  c0,0.908,0.658,1.649,1.456,1.649h8.186c0.798,0,1.454-0.741,1.454-1.649c0,0-0.532-5.832-0.532-12.359  c0-6.53,0.532-12.362,0.532-12.362C51.991,36.733,51.335,35.989,50.537,35.989z M50.537,66.978h-8.186  c-0.798,0-1.456,0.743-1.456,1.649c0,0,0.662,4.941,0.662,12.361c0,7.423-0.662,12.361-0.662,12.361c0,0.906,0.658,1.65,1.456,1.65  h8.186c0.798,0,1.454-0.744,1.454-1.65c0,0-0.532-5.831-0.532-12.361c0-6.527,0.532-12.361,0.532-12.361  C51.991,67.721,51.335,66.978,50.537,66.978z M66.928,38.567H59.1c-0.764,0-1.39,0.712-1.39,1.58c0,0,0.633,4.725,0.633,11.82  S57.71,63.786,57.71,63.786c0,0.87,0.626,1.58,1.39,1.58h7.828c0.765,0,1.391-0.71,1.391-1.58c0,0-0.507-5.574-0.507-11.818  s0.507-11.82,0.507-11.82C68.318,39.279,67.692,38.567,66.928,38.567z M66.928,68.203H59.1c-0.764,0-1.39,0.71-1.39,1.577  c0,0,0.633,4.723,0.633,11.821c0,7.098-0.633,11.82-0.633,11.82c0,0.87,0.626,1.578,1.39,1.578h7.828  c0.765,0,1.391-0.708,1.391-1.578c0,0-0.507-5.576-0.507-11.82c0-6.242,0.507-11.821,0.507-11.821  C68.318,68.913,67.692,68.203,66.928,68.203z M76.879,45.963c-2.461,4.924-10.291,13.646-7.159,22.24  C77.325,62.033,74.866,56.03,76.879,45.963z M93.116,62.357c-5.462,0.672-17.06-1.022-22.483,6.339  C79.978,71.617,83.616,66.252,93.116,62.357z M70.723,69.73c2.738,9.401,9.223,9.462,17.723,15.224  C84.86,80.772,79.855,70.177,70.723,69.73z M37.75,33.042c3.537-9.707-5.309-19.562-8.09-25.126  C31.934,19.288,29.156,26.07,37.75,33.042z M36.716,33.614C29.703,23.61,14.16,25.503,6.884,24.43  C19.451,29.929,24.135,37.218,36.716,33.614z M24.297,45.963c6.275-4.25,11.064-4.297,13.085-11.237  C30.638,35.055,26.943,42.881,24.297,45.963z"/></g><g id="SvgjsG1009" featureKey="nameFeature-0" transform="matrix(2.9205609298770807,0,0,2.9205609298770807,86.15887814024583,162.80373860409256)" fill="#000"><path d="M2 40 l0 -32 l6 0 c6 0 6 4.4 6 15.16 c0 12.4 0 16.84 -6 16.84 l-6 0 z M6 36 l2 0 c2.24 0 2.24 -1.68 2.24 -12.84 c0 -10 0 -11.96 -2.24 -11.96 l-2 0 l0 24.8 z M19.700000000000003 23.16 c0 -11.16 0.24 -15.56 6.24 -15.56 s6.24 4.4 6.24 15.56 c0 12.8 -0.24 17.24 -6.24 17.24 s-6.24 -4.44 -6.24 -17.24 z M23.700000000000003 23.16 c0 11.56 0 13.24 2.24 13.24 s2.24 -1.68 2.24 -13.24 c0 -10.4 0 -12.36 -2.24 -12.36 s-2.24 1.96 -2.24 12.36 z M49.58 40 l0 -32 l4 0 l0 32 l-4 0 z M58.48 11.600000000000001 l0 -3.6 l12 0 l0 3.6 l-4 0 l0 28.4 l-4 0 l0 -28.4 l-4 0 z"/></g><g id="SvgjsG1010" featureKey="sloganFeature-0" transform="matrix(1.142018234394256,0,0,1.142018234394256,90.41903907343848,292.68610864767504)" fill="#000"><path d="M6.18 7.32 c1.82 0 3.76 0.7 3.76 2.76 c0 0.48 -0.32 0.7 -0.66 0.7 s-0.7 -0.24 -0.7 -0.7 c0 -0.16 -0.1 -1.46 -2.4 -1.46 c-1.82 0 -2.62 0.72 -2.62 2.44 l0 4.82 c0 1.74 0.98 2.28 2.62 2.28 c1.66 0 2.58 -0.68 2.58 -2.3 c0 -0.46 0.34 -0.68 0.66 -0.68 c0.34 0 0.66 0.22 0.66 0.68 c0 2.7 -1.5 3.6 -3.9 3.6 c-2.6 0 -3.92 -0.96 -3.92 -3.58 l0 -4.82 c0 -2.84 1.42 -3.74 3.92 -3.74 z M14.780000000000001 18.76 l0 -10.76 c0 -0.42 0.32 -0.62 0.66 -0.62 s0.68 0.2 0.68 0.62 l0 4.58 l4.54 0 l0 -4.58 c0 -0.42 0.32 -0.64 0.64 -0.64 s0.66 0.22 0.66 0.64 l0 10.76 c0 0.42 -0.34 0.64 -0.66 0.64 s-0.64 -0.22 -0.64 -0.64 l0 -4.82 l-4.54 0 l0 4.82 c0 0.42 -0.34 0.64 -0.68 0.64 s-0.66 -0.22 -0.66 -0.64 z M27.020000000000003 18.7 l0 -10.64 c0 -0.46 0.36 -0.7 0.7 -0.7 l4.6 0 c0.44 0 0.66 0.32 0.66 0.66 s-0.22 0.68 -0.66 0.68 l-3.96 0 l0 3.88 l3.14 0 c0.46 0 0.68 0.32 0.68 0.66 s-0.24 0.7 -0.68 0.7 l-3.14 0 l0 4.14 l3.96 0 c0.42 0 0.64 0.34 0.64 0.66 c0 0.34 -0.22 0.66 -0.64 0.66 l-4.6 0 c-0.34 0 -0.7 -0.12 -0.7 -0.7 z M41.220000000000006 7.32 c1.82 0 3.76 0.7 3.76 2.76 c0 0.48 -0.32 0.7 -0.66 0.7 s-0.7 -0.24 -0.7 -0.7 c0 -0.16 -0.1 -1.46 -2.4 -1.46 c-1.82 0 -2.62 0.72 -2.62 2.44 l0 4.82 c0 1.74 0.98 2.28 2.62 2.28 c1.66 0 2.58 -0.68 2.58 -2.3 c0 -0.46 0.34 -0.68 0.66 -0.68 c0.34 0 0.66 0.22 0.66 0.68 c0 2.7 -1.5 3.6 -3.9 3.6 c-2.6 0 -3.92 -0.96 -3.92 -3.58 l0 -4.82 c0 -2.84 1.42 -3.74 3.92 -3.74 z M49.86000000000001 18.76 l0 -10.76 c0 -0.42 0.32 -0.64 0.64 -0.64 s0.66 0.22 0.66 0.64 l0 4.84 l3.86 -5.18 c0.5 -0.68 1.64 -0.02 1.12 0.68 l-2.24 3.08 l2.74 7.1 c0.18 0.48 -0.18 0.88 -0.6 0.88 c-0.24 0 -0.52 -0.18 -0.66 -0.56 c-0.78 -2 -1.62 -4.08 -2.4 -6.12 l-1.82 2.36 l0 3.68 c0 0.42 -0.34 0.64 -0.66 0.64 s-0.64 -0.22 -0.64 -0.64 z M61.72000000000001 12.48 l3.16 0 c0.42 0 0.64 0.32 0.64 0.64 c0 0.34 -0.22 0.68 -0.64 0.68 l-3.14 0 c-0.42 0 -0.64 -0.32 -0.64 -0.66 c0 -0.32 0.22 -0.66 0.62 -0.66 z M69.66000000000001 18.78 l0 -10.78 c0 -0.42 0.32 -0.64 0.64 -0.64 s0.66 0.22 0.66 0.64 l0 10.78 c0 0.86 -1.3 0.86 -1.3 0 z M82.74000000000001 8 l0 10.76 c0 0.42 -0.32 0.64 -0.64 0.64 c-0.24 0 -0.56 -0.18 -0.7 -0.44 c-1.5 -2.94 -2.62 -5.2 -4.12 -8.16 l0 7.96 c0 0.42 -0.32 0.64 -0.66 0.64 c-0.32 0 -0.66 -0.22 -0.66 -0.64 l0 -10.76 c0 -0.7 1 -0.74 1.22 -0.32 l4.22 8.34 l0 -8.02 c0 -0.42 0.32 -0.64 0.66 -0.64 s0.68 0.22 0.68 0.64 z M94.96000000000001 7.359999999999999 l6.04 0 c0.42 0 0.62 0.34 0.62 0.68 s-0.2 0.66 -0.62 0.66 l-2.28 0 l0 10.06 c0 0.42 -0.34 0.64 -0.68 0.64 s-0.66 -0.22 -0.66 -0.64 l0 -10.06 l-2.42 0 c-0.42 0 -0.62 -0.32 -0.62 -0.66 s0.2 -0.68 0.62 -0.68 z M105.82000000000001 18.76 l0 -10.76 c0 -0.42 0.32 -0.62 0.66 -0.62 s0.68 0.2 0.68 0.62 l0 4.58 l4.54 0 l0 -4.58 c0 -0.42 0.32 -0.64 0.64 -0.64 s0.66 0.22 0.66 0.64 l0 10.76 c0 0.42 -0.34 0.64 -0.66 0.64 s-0.64 -0.22 -0.64 -0.64 l0 -4.82 l-4.54 0 l0 4.82 c0 0.42 -0.34 0.64 -0.68 0.64 s-0.66 -0.22 -0.66 -0.64 z M118.06 18.7 l0 -10.64 c0 -0.46 0.36 -0.7 0.7 -0.7 l4.6 0 c0.44 0 0.66 0.32 0.66 0.66 s-0.22 0.68 -0.66 0.68 l-3.96 0 l0 3.88 l3.14 0 c0.46 0 0.68 0.32 0.68 0.66 s-0.24 0.7 -0.68 0.7 l-3.14 0 l0 4.14 l3.96 0 c0.42 0 0.64 0.34 0.64 0.66 c0 0.34 -0.22 0.66 -0.64 0.66 l-4.6 0 c-0.34 0 -0.7 -0.12 -0.7 -0.7 z M135.74 7.359999999999999 l6.04 0 c0.42 0 0.62 0.34 0.62 0.68 s-0.2 0.66 -0.62 0.66 l-2.28 0 l0 10.06 c0 0.42 -0.34 0.64 -0.68 0.64 s-0.66 -0.22 -0.66 -0.64 l0 -10.06 l-2.42 0 c-0.42 0 -0.62 -0.32 -0.62 -0.66 s0.2 -0.68 0.62 -0.68 z M152.5 18.86 l-0.78 -2.54 l-3.72 0 l-0.74 2.5 c-0.26 0.86 -1.58 0.6 -1.3 -0.28 c1.04 -3.5 2.06 -7.06 3.08 -10.6 c0.12 -0.38 0.44 -0.58 0.76 -0.58 c0.3 0 0.62 0.2 0.74 0.58 l3.18 10.6 c0.22 0.76 -0.96 1.18 -1.22 0.32 z M149.84 10.06 l-1.44 4.92 l2.94 0 c-0.5 -1.68 -0.96 -3.12 -1.5 -4.92 z M157.88 17.68 c-0.44 -0.82 0.68 -1.42 1.2 -0.6 c0.26 0.42 1.04 1.14 2.28 1.14 c0.52 0 1.82 -0.38 2 -1.86 c0.12 -0.9 -0.74 -1.78 -2.22 -2.52 c-2.08 -0.98 -3.66 -1.84 -3.66 -3.56 c0 -2.04 1.72 -3 3.56 -3 c1.66 0 2.58 1.02 2.9 1.54 c0.46 0.74 -0.54 1.46 -1.1 0.74 c-0.28 -0.36 -0.82 -0.96 -1.8 -0.96 c-1.1 0 -2.24 0.52 -2.24 1.68 c0 0.92 1.02 1.44 2.54 2.16 c1.78 0.88 3.64 1.74 3.36 4.08 c-0.22 1.84 -1.62 3.02 -3.34 3.02 c-1.3 0 -2.9 -0.7 -3.48 -1.86 z M169.16 18.76 l0 -10.76 c0 -0.42 0.32 -0.64 0.64 -0.64 s0.66 0.22 0.66 0.64 l0 4.84 l3.86 -5.18 c0.5 -0.68 1.64 -0.02 1.12 0.68 l-2.24 3.08 l2.74 7.1 c0.18 0.48 -0.18 0.88 -0.6 0.88 c-0.24 0 -0.52 -0.18 -0.66 -0.56 c-0.78 -2 -1.62 -4.08 -2.4 -6.12 l-1.82 2.36 l0 3.68 c0 0.42 -0.34 0.64 -0.66 0.64 s-0.64 -0.22 -0.64 -0.64 z"/></g>
			</g>
		</svg>
	